<svg xmlns="http://www.w3.org/2000/svg" width="563" height="375"><path d="M0 0h563v375H0V0z" fill="#CEEAFD"/><path d="M406 0h157v89c-8.889 0-8.889 0-12-3-3.15-2.556-5.54-4.027-9.8-3.742-3.046 1.028-5.166 2.778-7.7 4.742-6.687 5.17-6.687 5.17-11.473 4.68-2.612-.876-4.704-2.202-7.027-3.68-5.096-3.255-5.096-3.255-10.96-3.754C499.092 86.075 495.605 90.3 492 94c-1.846 1.867-3.695 3.73-5.546 5.591a455.991 455.991 0 0 0-3.72 3.798l-1.73 1.767-1.537 1.588c-3.38 2.894-7.256 2.478-11.467 2.256-2.313-.688-2.313-.688-4-2-1.25-2.625-1.25-2.625-2-5h-2a2125.9 2125.9 0 0 1-.563-8.875l-.17-2.55-.146-2.442-.143-2.254C459 84 459 84 460 82h2l.688-2.188c1.568-3.361 3.668-5.233 6.312-7.812 2.002-2.693 2.913-4.508 3.5-7.813-.687-4.379-2.657-7.793-5.5-11.187-2.278-.226-2.278-.226-4.313 2.125A112.416 112.416 0 0 0 457.563 61c-2.63 3.079-5.425 5.45-8.562 8a282.478 282.478 0 0 0-5 5l-1.621 1.59c-3.148 3.091-6.136 6.243-9.004 9.597-2.582 3-5.282 5.339-8.375 7.813a219.752 219.752 0 0 0-3.375 3.938c-3.972 4.618-7.789 8.194-13.688 10-4.769.101-8.012-1.322-11.937-3.938-2.178-4.012-2.25-7.492-2-12l1-3h2l.688-1.75c1.644-2.82 3.748-4.263 6.312-6.25l2-3h2l.813-1.938C410 73 410 73 413 72a203.6 203.6 0 0 0 2-4c1.7-1.64 1.7-1.64 3.688-3.25 3.558-3.006 6.562-6.21 9.578-9.75a138.637 138.637 0 0 1 5.546-6l1.708-1.75C437 46 437 46 439 46l.688-1.672c1.7-3.015 3.86-5.14 6.312-7.578l2.688-2.703C451 32 451 32 453 32l.813-1.688C455 28 455 28 456.625 25.813c1.989-4.067 2.626-7.4 1.375-11.812-3.516-4.81-7.777-8.254-13.75-9.188-3.874-.114-6.138.808-9.25 3.188l-3 1-.813 1.672c-1.765 3.46-4.44 5.869-7.187 8.578l-1.656 1.68C418.254 25 418.254 25 416 25l-.75 1.75c-1.433 2.58-3.034 4.311-5.25 6.25h-2v2c-4.025 2.013-8.645 1.729-13 1-2.99-1.81-4.574-3.823-6-7-.852-4.302-.708-7.68 1.375-11.563C392 16 392 16 394 16v-2l2.125-1.625C400.219 8.993 403.615 4.77 406 0z" fill="#307BE0"/><path d="M56 294c3.765 2.067 7.052 4.104 9 8 .514 5.401.44 8.611-3 13a141.4 141.4 0 0 1-5 5l-2.688 2.813C52 325 52 325 50 325l-.688 1.688c-1.686 2.97-3.842 4.957-6.312 7.312l-2.688 2.813C38 339 38 339 36 339l-.648 1.684c-1.47 2.517-3.257 4.12-5.442 6.02-3.442 3.045-6.46 5.74-7.773 10.284-.116 4.512.403 7.245 2.738 11.137 3.381 2.983 5.317 2.989 9.75 2.938l3.04-.028L40 371v-2c1.847-1.861 3.842-3.495 5.852-5.18 2.098-1.73 2.098-1.73 3.734-3.39 2.745-2.655 4.498-3.445 8.289-4.118 3.585.198 5.388 1.429 8.125 3.688 2.667 2.183 4.522 3.52 8 3.813 8.854-.968 16.654-12.418 22.527-18.467l2.059-2.092 1.845-1.896C102 340 102 340 104 340l.785-1.773c1.301-2.385 2.714-3.96 4.653-5.852l1.808-1.79c4.109-3.714 6.873-4.057 12.203-3.987 3.45.544 5.143 2.094 7.766 4.277 3.307 2.084 7.05 1.917 10.785 1.125 5.167-2.377 8.789-6.602 12.688-10.625 1.335-1.37 2.672-2.737 4.011-4.102l1.776-1.83c3.105-2.938 6.097-2.829 10.197-2.802 3.918.604 5.632 2.528 8.328 5.359 1.736 3.472 1.476 7.205 1 11-1.09 2.62-2.39 4.636-4 7h-2v11h2c4.075 4.569 5.324 7.836 5.21 14.012-.475 4.49-3.02 6.935-6.335 9.675L172 373l-1 2H0v-52l5 3c2.26.466 2.26.466 4.5.375l2.219.023c5.917-1.033 9.787-5.664 13.789-9.78l1.84-1.864a1988.37 1988.37 0 0 0 5.777-5.879c2.539-2.592 5.084-5.177 7.633-7.758l1.761-1.812C46.891 294.88 49.742 293.387 56 294z" fill="#3887D7"/><path d="M64 136c3.032 1.519 5.109 3.172 7 6 .993 4.48.593 8.408-1 12.688-2.414 2.79-5.073 5.114-7.887 7.496-4.634 3.982-8.765 8.37-12.738 13.004-2.574 2.994-5.263 5.373-8.375 7.812l-2.188 2.75L37 188h-2v2h-2c-1.834 4.586-2.99 9.088-2 14 1.1 1.753 1.1 1.753 2.5 3.375 2.915 3.64 3.225 6.65 3 11.246-.825 3.926-2.549 5.71-5.5 8.379h-2l-.813 1.813C27 231 27 231 25.442 232.288c-2.042 2.424-1.774 4.152-1.691 7.274.015.97.03 1.94.047 2.94.047 2.495.047 2.495 1.203 4.497 3.85-1.513 5.472-3.802 8-7a381.113 381.113 0 0 1 6-5 281.771 281.771 0 0 0 5-5c1.393-1.42 2.789-2.836 4.188-4.25l2.042-2.078c3.033-2.865 5.53-3.006 9.668-2.961 3.402.468 5.513 2.132 8.102 4.289 2.836 4.255 2.89 8.008 2 13-1.606 2.789-3.462 5.014-6 7h-2v2a140.287 140.287 0 0 1-5 5l-2.324 2.324C37 272 37 272 34.659 274.34c-2.646 2.648-5.286 5.3-7.926 7.954-2.765 2.778-5.532 5.553-8.3 8.329a5201.808 5201.808 0 0 0-4.388 4.408 4998.5 4998.5 0 0 1-6.342 6.365l-1.992 2.007A326.474 326.474 0 0 1 1 308H0V157c3.464-1.732 7.212-1.483 11-1 2.713 1.233 4.881 2.881 7 5 1.965.239 1.965.239 4.25.25l2.328.078c4.948-.67 8.257-3.928 11.602-7.418l2.316-2.377c1.58-1.641 3.158-3.284 4.734-4.93C55.128 134.417 55.128 134.417 64 136z" fill="#4BB9D8"/><path d="M406 0h70l-2 4-.875 2c-2.186 3.886-5.056 6.256-9.125 8l1 3-1 2h-2v2h2l-1 11 2 1-1 8h2l.813-2.25c1.17-2.71 2.1-4.663 4.187-6.75 2.688-.25 2.688-.25 5 0l-1.023 1.426-1.352 1.886-1.336 1.864A214.957 214.957 0 0 0 469 42h-2l.25 2.5c-.43 6.029-2.752 10.13-7.188 14.188L457 61c-2.477 2.36-4.737 4.655-6.813 7.375-1.936 2.324-3.833 4.11-6.125 6.063-2.473 2.109-4.465 4.046-6.562 6.562-2.631 3.157-5.464 5.677-8.578 8.34-3.26 2.815-6.212 5.713-8.797 9.16-3.44 4.047-7.081 6.874-12.188 8.438-4.769.101-8.012-1.322-11.937-3.938-2.178-4.012-2.25-7.492-2-12l1-3h2l.688-1.75c1.644-2.82 3.748-4.263 6.312-6.25l2-3h2l.813-1.938C410 73 410 73 413 72a203.6 203.6 0 0 0 2-4c1.7-1.64 1.7-1.64 3.688-3.25 3.558-3.006 6.562-6.21 9.578-9.75a138.637 138.637 0 0 1 5.546-6l1.708-1.75C437 46 437 46 439 46l.688-1.672c1.7-3.015 3.86-5.14 6.312-7.578l2.688-2.703C451 32 451 32 453 32l.813-1.688C455 28 455 28 456.625 25.813c1.989-4.067 2.626-7.4 1.375-11.812-3.516-4.81-7.777-8.254-13.75-9.188-3.874-.114-6.138.808-9.25 3.188l-3 1-.813 1.672c-1.765 3.46-4.44 5.869-7.187 8.578l-1.656 1.68C418.254 25 418.254 25 416 25l-.75 1.75c-1.433 2.58-3.034 4.311-5.25 6.25h-2v2c-4.025 2.013-8.645 1.729-13 1-2.99-1.81-4.574-3.823-6-7-.852-4.302-.708-7.68 1.375-11.563C392 16 392 16 394 16v-2l2.125-1.625C400.219 8.993 403.615 4.77 406 0z" fill="#0DB8CB"/><path d="M545 288c3.082 1.628 5.264 3.03 7.375 5.813 1.188 4.158 1.358 7.773-.654 11.655-1.69 2.486-3.433 4.485-5.562 6.6l-2.317 2.316-2.49 2.46-2.575 2.566a4341.645 4341.645 0 0 1-8.152 8.09l-5.469 5.441c-3.349 3.333-6.7 6.664-10.056 9.99L511 347l-1.599 1.586A125.549 125.549 0 0 0 502.5 356c-6.989 8.05-6.989 8.05-10.688 10.375-2.604 2.045-2.604 2.045-3.812 8.625h-72c1.124-3.373 2.073-4.151 4.75-6.375 4.581-3.898 8.69-7.958 12.563-12.563 8.66-9.839 8.66-9.839 14.125-10.242 3.127.311 5.744.77 8.562 2.18v2c5.9 2.36 11.848 3.05 18 1v-2h2l.762-1.785c1.393-2.491 2.859-3.838 5.05-5.652 5.583-4.741 10.423-9.929 15.262-15.415 2.226-2.483 4.534-4.824 6.926-7.148l1.688-1.813C507 316 507 316 509 316v-2h2l1-3c1.938-2.188 1.938-2.188 4-4h2l.688-1.688c1.698-2.992 3.82-4.928 6.312-7.312l1.93-2.027 2.07-2.16 1.938-2.043c4.284-3.676 8.523-4.353 14.062-3.77z" fill="#3991CF"/><path d="M244 320c3.182 1.42 5.147 3.044 7 6 1.025 3.575.973 6.415 0 10-2.375 3.856-5.512 6.802-9.023 9.629-3.098 2.624-4.75 4.273-5.59 8.336-.275 6.412-.275 6.412 2.925 11.723 5.284 2.58 10.036 3.196 15.688 1.312 1.374-1.356 1.374-1.356 2.75-3.125 3.816-4.5 7.908-8.69 12.063-12.875.67-.683 1.34-1.367 2.032-2.07l1.925-1.93 1.737-1.75C277 344 277 344 279 344l.813-1.75c1.216-2.306 2.49-4.27 4.187-6.25h2v-2c3.628-3.11 6.989-4.899 11.75-5.375L301 329l2.188.125c3.258 1.573 4.239 3.673 5.812 6.875 1.053 3.639 1.075 6.355 0 10-2.676 3.847-5.853 7.043-9.219 10.273-1.965 1.906-3.874 3.86-5.781 5.825a3761.073 3761.073 0 0 1-6.047 6.178l-1.863 1.865-1.66 1.672C283 373 283 373 281 373v2H179c7.565-8.826 7.565-8.826 10-11h2l2-4h2l.813-1.938C197 356 197 356 200 355a71.64 71.64 0 0 0 2-4c1.29-1.544 1.29-1.544 2.766-3.024l1.678-1.698 1.806-1.794 1.86-1.866c1.296-1.297 2.594-2.59 3.894-3.883 1.996-1.985 3.98-3.98 5.965-5.977l3.781-3.774 1.806-1.818C229.77 323 229.77 323 232 323v-2c3.776-1.888 7.897-1.618 12-1z" fill="#6AC7E5"/><path d="M173 313c3.075 1.703 5.406 3.812 7 7 .815 6.562-.306 10.575-4 16h-2v11h2c4.075 4.569 5.324 7.836 5.21 14.012-.475 4.49-3.02 6.935-6.335 9.675L172 373l-1 2h-56c0-8.847 0-8.847 2-11.813 3.03-5.407 2.809-11.562 1.48-17.515L118 344l-2.188-.375c-2.868-.637-5.222-1.225-7.812-2.625-1.313-2.625-1.313-2.625-2-5a948.854 948.854 0 0 1 3.313-3.375l1.863-1.898c4.077-3.86 6.886-4.2 12.273-4.13 3.45.545 5.143 2.095 7.766 4.278 3.307 2.084 7.05 1.917 10.785 1.125 5.167-2.377 8.789-6.602 12.688-10.625 1.335-1.37 2.672-2.737 4.011-4.102l1.776-1.83c3.542-3.352 7.91-3.155 12.525-2.443z" fill="#43C1FA"/><path d="M561 14h2v75c-8.889 0-8.889 0-12-3-3.15-2.556-5.54-4.027-9.8-3.742-3.046 1.028-5.166 2.778-7.7 4.742-6.687 5.17-6.687 5.17-11.473 4.68-2.612-.876-4.704-2.202-7.027-3.68-5.096-3.255-5.096-3.255-10.96-3.754C499.092 86.075 495.605 90.3 492 94c-1.846 1.867-3.695 3.73-5.546 5.591a455.991 455.991 0 0 0-3.72 3.798l-1.73 1.767-1.537 1.588c-3.38 2.894-7.256 2.478-11.467 2.256-2.313-.688-2.313-.688-4-2-1.25-2.625-1.25-2.625-2-5h-2a2125.9 2125.9 0 0 1-.563-8.875l-.17-2.55-.146-2.442-.143-2.254C459 84 459 84 460 82h2l1-2 1 3-1 2c-.228 1.87-.41 3.747-.563 5.625l-.253 3.04L462 96h7v2l3.25-1c3.75-1 3.75-1 7.75-1l1-3c3.444-3 3.444-3 6-3l.625-2.75c1.71-4.042 3.719-4.965 7.375-7.25a89.47 89.47 0 0 0 2-4c4.444-4 4.444-4 7-4v-2a262.496 262.496 0 0 1 5-4l1-2h2v-3l2-1.188c4.588-2.771 9.567-6.945 12-11.812h2l.688-1.875c1.7-2.754 3.366-2.947 6.312-4.125l.855-1.715c1.541-3.076 3.649-5.303 5.957-7.847l2.583-2.88c2.438-2.394 4.683-3.841 7.605-5.558 1.972-1.94 1.972-1.94 3.688-4.063 1.727-2.057 3.411-4.036 5.312-5.937z" fill="#1E89E0"/><path d="M62 221c3.752 2.015 5.636 3.455 8 7 .782 4.302.949 8.353-1.273 12.21-1.49 1.782-2.898 3.359-4.727 4.79h-2v2a140.287 140.287 0 0 1-5 5l-2.324 2.324C37 272 37 272 34.659 274.34c-2.646 2.648-5.286 5.3-7.926 7.954-2.765 2.778-5.532 5.553-8.3 8.329a5201.808 5201.808 0 0 0-4.388 4.408 4998.5 4998.5 0 0 1-6.342 6.365l-1.992 2.007A326.474 326.474 0 0 1 1 308H0c-2.43-31.716-2.43-31.716 2.941-39.2 2.797-3 5.908-5.407 9.343-7.634 3.647-2.478 6.395-5.77 9.153-9.166 2.63-3.079 5.426-5.45 8.563-8a95.108 95.108 0 0 0 7.813-8.375c2.838-3.358 5.95-6.222 9.316-9.047 1.512-1.275 2.954-2.634 4.371-4.016 3.468-2.167 6.578-2.337 10.5-1.562z" fill="#3788D6"/><path d="M105 337h2v2c2.515 1.308 4.963 2.365 7.625 3.375 3.615 1.74 4.071 2.059 5.375 5.625.892 6.586.169 11.915-3.027 17.734-1.38 2.942-1.38 2.942-1.973 9.266H48v-7h-2l-1 3c-3.523 2.883-6.477 3.406-11.004 3.234-3.608-.423-6.768-1.62-9.996-3.234l1-3 1.64 1.488c2.932 1.879 4.663 1.823 8.11 1.7l2.984-.083L40 371v-2c1.847-1.861 3.842-3.495 5.852-5.18 2.098-1.73 2.098-1.73 3.734-3.39 2.745-2.655 4.498-3.445 8.289-4.118 3.585.198 5.388 1.429 8.125 3.688 2.667 2.183 4.522 3.52 8 3.813 8.854-.968 16.654-12.418 22.527-18.467l2.059-2.092 1.845-1.896C102 340 102 340 104 340l1-3z" fill="#3A98CC"/><path d="m301 329 2.188.125c3.258 1.573 4.239 3.673 5.812 6.875 1.053 3.639 1.075 6.355 0 10-2.676 3.847-5.853 7.043-9.219 10.273-1.965 1.906-3.874 3.86-5.781 5.825a3761.073 3761.073 0 0 1-6.047 6.178l-1.863 1.865-1.66 1.672C283 373 283 373 281 373v2h-33l3-4h2v-2l7-3-4-1a2978.17 2978.17 0 0 1 8.862-8.972 1204.73 1204.73 0 0 0 3.015-3.056c1.44-1.464 2.886-2.922 4.334-4.378l2.634-2.666C277 344 277 344 279 344l.813-1.75c1.216-2.306 2.49-4.27 4.187-6.25h2v-2c4.669-4.002 8.794-5.716 15-5z" fill="#80D8F2"/><path d="M406 0h68c0 3 0 3-2.188 5.5-4.698 4.177-4.698 4.177-7.812 5.5-2.813-.813-2.813-.813-5-2l-2 4-1.434-1.496c-4.288-4.154-7.46-6.472-13.523-6.723-2.91.312-4.744 1.46-7.043 3.219l-3 1-.813 1.672c-1.765 3.46-4.44 5.869-7.187 8.578l-1.656 1.68C418.254 25 418.254 25 416 25l-.75 1.75c-1.433 2.58-3.034 4.311-5.25 6.25h-2v2c-4.025 2.013-8.645 1.729-13 1-2.99-1.81-4.574-3.823-6-7-.852-4.302-.708-7.68 1.375-11.563C392 16 392 16 394 16v-2l2.125-1.625C400.219 8.993 403.615 4.77 406 0z" fill="#3893D0"/><path d="M474 0h2l-1 3-1-3zm-2 3 2 1c-2.083 4.86-5.14 7.917-10 10l1 3-1 2h-2v2h2l-1 11 2 1-1 8h2l.813-2.25c1.17-2.71 2.1-4.663 4.187-6.75 2.688-.25 2.688-.25 5 0l-1.023 1.426-1.352 1.886-1.336 1.864A214.957 214.957 0 0 0 469 42h-2l.25 2.5c-.43 6.029-2.752 10.13-7.188 14.188L457 61c-2.52 2.4-4.787 4.716-6.875 7.5-2.71 3.189-5.657 5.166-9.125 7.5-5.571-5.143-5.571-5.143-6-9l3-2-6 1v-2h-5l2-1-.375-2.063c.572-4.476 3.316-6.777 6.375-9.937l1.441-1.559c1.136-1.197 2.343-2.326 3.559-3.441h2l-.273-2.2c.372-3.817 1.904-5.002 4.648-7.612l2.46-2.395C451 32 451 32 453 32l.813-1.688C455 28 455 28 456.565 25.742c1.704-3.258 1.713-5.284 1.559-8.93-.209-5.644-.209-5.644.875-7.812l2.25.625c3.205.437 4.141.226 6.75-1.625 2.228-2.534 2.228-2.534 4-5z" fill="#13A9D2"/><path d="M64 136c3.032 1.519 5.109 3.172 7 6 1.002 4.521.598 8.451-1.063 12.75-4.633 5.38-10.14 9.984-16.937 12.25v2h-2l-2 4h-1c-.375-2.188-.375-2.188 0-5a112.195 112.195 0 0 1 6-5l1-3-2.375 1.5C50 163 50 163 48 163v-3h-2l-1-4h-3c-.95-6.655-.95-6.655 1.535-10.172C49.218 140.003 55.375 134.46 64 136z" fill="#40BECE"/><path d="m462 80 2 1-2 15h7v2l3.25-1c3.75-1 3.75-1 7.75-1l1-3c1.742-1.387 1.742-1.387 3.875-2.688l2.117-1.324C489 88 489 88 492 88v-3c3.01-.934 3.867-1.044 7 0l1-3c12.9-.689 12.9-.689 16.75 1.938C519 86 519 86 520 87c2.04.013 2.04.013 4.375-.25l2.398-.203c2.6-.639 3.45-1.614 5.227-3.547h2l1-2c3.613-1.39 7.189-1.381 11-1 2.897 1.36 5.566 2.914 8 5v2h9v2c-6.88.737-6.88.737-10.031-1.336L551 86c-3.15-2.556-5.54-4.027-9.8-3.742-3.046 1.028-5.166 2.778-7.7 4.742-6.687 5.17-6.687 5.17-11.473 4.68-2.612-.876-4.704-2.202-7.027-3.68-5.096-3.255-5.096-3.255-10.96-3.754C499.092 86.075 495.605 90.3 492 94c-1.846 1.867-3.695 3.73-5.546 5.591a455.991 455.991 0 0 0-3.72 3.798l-1.73 1.767-1.537 1.588c-3.38 2.894-7.256 2.478-11.467 2.256-2.313-.688-2.313-.688-4-2-1.25-2.625-1.25-2.625-2-5h-2a2125.9 2125.9 0 0 1-.563-8.875l-.17-2.55-.146-2.442-.143-2.254C459 84 459 84 460 82h2v-2z" fill="#199FD5"/><path d="M548 354c3.5 2.042 5.806 4.09 7 8 .429 5.404.58 8.65-3 13-2.853.456-5.105.586-7.95.488l-2.34-.021c-2.467-.028-4.932-.09-7.398-.154-1.672-.026-3.345-.048-5.017-.069-4.1-.055-8.197-.141-12.295-.244l1-2h2l1-3c1.938-2.188 1.938-2.188 4-4h2v-2c1.375-1.625 1.375-1.625 3-3h2l1-3c4.258-4.808 8.963-4.993 15-4z" fill="#388BD4"/><path d="M472 323c3.125 2.375 3.125 2.375 5 5v2h2c.585 9.938.585 9.938-3 14-4.082 2.63-7.167 3.604-12 3-3.797-1.34-5.562-2.372-7.875-5.688-1.442-4.247-1.623-6.83-1.125-11.312 4.312-6.84 9.284-8.241 17-7z" fill="#40BDF9"/><path d="M79.188 275.75c4.414 3.532 4.414 3.532 5.812 6.25.578 5.198-.118 8.627-3 13-3.504 3.003-6.593 3.475-11.063 3.29-2.907-.435-4.735-1.364-6.937-3.29v-4h-3c-.558-9.484-.558-9.484 3-14 4.223-4.223 10.14-4.02 15.188-1.25z" fill="#489CF7"/><path d="M388.25 37.125c3.378 2.303 4.396 4.037 5.75 7.875.582 3.99.206 5.624-1.75 9.188-3.36 4.2-4.652 5.632-10.125 6.25C377.834 60.269 375.28 58.81 372 56c-2.562-4.185-2.7-8.216-2-13 4.328-7.264 10.343-8.612 18.25-5.875z" fill="#3983D4"/><path d="M545 97c3.28 2.068 4.847 3.771 7 7 .768 4.686.409 8.197-1.75 12.438-2.18 2.481-3.247 3.411-6.25 4.562-4.635.223-8.737-.106-12.563-2.813-2.894-4.405-3.434-10.055-2.437-15.187 4.085-5.343 9.518-6.92 16-6z" fill="#45C9F9"/><path d="M31 130c3.12 1.477 5.136 3.08 7 6 1.057 4.215 1.036 8.056-1.035 11.941-2.104 2.67-3.73 3.98-6.965 5.059-5.305.342-8.725.52-13-3-2.702-4.442-3.016-8.95-2-14 3.666-5.82 9.462-7.678 16-6z" fill="#3472E2"/><path d="m442 42 6 1v8h2c2 2 2 2 2 6l-4 1v6h-2v2h-3l1 8-3 2c-5.571-5.143-5.571-5.143-6-9l3-2-6 1v-2h-5l2-1-.375-2.063c.572-4.476 3.316-6.777 6.375-9.937l1.441-1.559c1.136-1.197 2.343-2.326 3.559-3.441h2v-4z" fill="#11AFCF"/><path d="M418 24c0 3.32-.43 5.085-2 8-2.438 1.125-2.438 1.125-5 2l-1.352 1.516c-2.19 1.973-3.674 1.943-6.586 2.109-3.15.2-6.02.514-9.062 1.375l1 3-2 3-.625-2.875c-1.071-3.326-1.071-3.326-4.063-4.5-4.814-.908-8.597-1.425-13.125.688-2.407 1.67-2.407 1.67-4.187 4.687-.279 2.15-.279 2.15-.188 4.438l.02 2.308c.166 2.224.449 4.143 1.168 6.254 1.9 1.242 1.9 1.242 4 2l2 1c5.73.528 5.73.528 10.813-1.75 2.454-2.43 2.454-2.43 5.187-6.25v10l-3 1v-2h-2l-1 4h-12v-2l-6 1c-2.234-3.351-2.238-4.418-2.195-8.324l.02-3.115.05-3.248.027-3.284c.024-2.676.057-5.353.098-8.029l3 1v-2l10-2v-2l8 1 1-4 1.688 3c2.113 2.632 3.117 2.976 6.539 3.398 3.275-.021 6.508-.14 9.773-.398v-2c1.426-1.402 1.426-1.402 3.313-2.938 2.35-1.927 4.57-3.88 6.687-6.062z" fill="#B8E7F9"/><path d="M432 0h42c0 3 0 3-2.188 5.5-4.698 4.177-4.698 4.177-7.812 5.5-2.813-.813-2.813-.813-5-2l-2 4-1.941-1.934c-5.228-5.1-5.228-5.1-11.684-8.254C439.318 3.038 435.893 3.84 432 5V0z" fill="#3785D8"/><path d="M56 294c3.765 2.067 7.052 4.104 9 8 .514 5.401.44 8.611-3 13a141.4 141.4 0 0 1-5 5l-2.688 2.813C52 325 52 325 50 325l-1 3-1-4 4-1 .188-2.313c.812-2.687.812-2.687 3.124-4 3.832-2.405 5.423-5.38 6.688-9.687.03-2.862-.395-5.175-1-8h-2v-2c-5.597-.29-9.168-.185-14 3a173.788 173.788 0 0 0-4 5 198.731 198.731 0 0 1-6.293 5.352C32.746 311.99 32.746 311.99 32 315l-1.875.875c-2.31.975-2.31.975-3.375 3.375-2.451 3.852-5.717 6.6-9.75 8.75-2.758.168-2.758.168-5 0v2H4v-3l-4 1v-5l1.938 1.5c4.025 1.972 7.647 2.271 12.062 1.5 4.659-2.346 7.919-5.69 11.508-9.383l1.84-1.863a1988.37 1988.37 0 0 0 5.777-5.879c2.539-2.592 5.084-5.177 7.633-7.758l1.761-1.812C46.891 294.88 49.742 293.387 56 294z" fill="#4C8EBE"/><path d="M545 288c3.082 1.628 5.264 3.03 7.375 5.813 1.157 4.049 1.357 7.682-.508 11.515-2.36 3.377-5.104 6.124-8.054 8.985l-1.694 1.666A1041.087 1041.087 0 0 1 538 320c-.934-3.01-1.044-3.867 0-7l6-1v-3h2l-.957-1.648c-1.21-2.73-1.486-5.007-1.73-7.977l-.262-2.914C543 294 543 294 544 292l-2.3.727-3.013.898-2.988.914C533 295 533 295 530 293c5.061-4.24 8.322-5.566 15-5z" fill="#3A9DC8"/><path d="M389 38c3.428 2.666 4.819 5.612 5.375 9.875-.474 3.947-1.932 6.035-4.375 9.125-3.19 1.595-6.427 1-10 1l1-20c3.35-1.117 4.673-.998 8 0z" fill="#3667EC"/><path d="M463 324c9.123-.627 9.123-.627 12.625 1.875C477 328 477 328 477 330h2c.585 9.938.585 9.938-3 14-4.119 2.654-7.132 3.348-12 3v-2l3-1-.035-3.176-.027-4.137-.026-2.091c-.015-3.144.086-5.59 1.088-8.596l-5-1v-1z" fill="#4182EE"/><path d="M541 99c7.305.479 7.305.479 10 2.5 1.545 3.863 1.646 7.403 1 11.5-1.636 3.214-2.973 5.247-5.875 7.375-2.822.83-5.2.88-8.125.625l-2-2 5-1-.527-2.57c-.495-3.589-.366-6.704-.035-10.305l.308-3.492L541 99z" fill="#3F84FB"/><path d="M552.496 83.71 554 85v2h9v2c-6.88.737-6.88.737-10.031-1.336L551 86c-3.15-2.556-5.54-4.027-9.8-3.742-3.046 1.028-5.166 2.778-7.7 4.742-6.687 5.17-6.687 5.17-11.473 4.68-2.612-.876-4.704-2.202-7.027-3.68-3.667-2.331-6.48-4.108-10.906-3.809-4.882 1.886-8.515 6.113-12.094 9.809v-9c3.01-.934 3.867-1.044 7 0l1-3c12.9-.689 12.9-.689 16.75 1.938C519 86 519 86 520 87c2.04.013 2.04.013 4.375-.25l2.398-.203c2.6-.639 3.45-1.614 5.227-3.547h2l1-2c6.649-2.557 11.819-.973 17.496 2.71z" fill="#2F84C6"/><path d="m228 325 1 3-2.125 2.063c-2.069 2.063-3.99 4.205-5.875 6.437-2.544 2.996-5.1 5.842-8 8.5h-2v2h-2v2h-2v2l-2 1-1.313 2.25c-2.608 4.25-5.578 7.098-9.875 9.625-3.58 2.705-3.86 4.837-4.812 9.125-2 2-2 2-3.945 2.195L179 375c7.05-8.366 7.05-8.366 10-11h2l2-4h2l.813-1.938C197 356 197 356 200 355l.82-1.683c1.72-3.379 4.385-5.767 7.063-8.395l1.74-1.732c1.83-1.818 3.666-3.629 5.502-5.44l3.73-3.703A4078.32 4078.32 0 0 1 228 325z" fill="#73BBD6"/><path d="m462 80 2 1-2 15h7v2l8-2-1 4c-3.563 1.75-3.563 1.75-7 3l1 4 10-2c-2 3-2 3-5 4-7.876.43-7.876.43-11-2-1.25-2.625-1.25-2.625-2-5h-2a2125.9 2125.9 0 0 1-.563-8.875l-.17-2.55-.146-2.442-.143-2.254C459 84 459 84 460 82h2v-2z" fill="#1E9DCB"/><path d="M58 284h1v9c-.664-.095-1.328-.19-2.012-.29-6.704-.913-6.704-.913-12.988 1.29l.188 2.313C44 299 44 299 42.75 300.875 41 302 41 302 38.812 301.688L37 301l-1.688 2.938C33 307 33 307 30.25 307.875L28 308c.708-3.681 2.16-6.745 4-10 3.228-2.152 4.284-2.2 8-2l.438-2.875C41 290 41 290 42 288l2.012.035c6.551.084 6.551.084 12.988-1.035l1-3z" fill="#DCE9F7"/><path d="M449 5c4.556 2.847 9.121 6.102 10.734 11.422C459.888 20.995 458.9 24.4 456 28a140.075 140.075 0 0 1-5 5c-1.44 1.435-2.878 2.872-4.313 4.313L443 41l-1-3h2l2-4h2v-2l2-1a78.037 78.037 0 0 0 2-5h4l1-10h-2c-2.125-1.875-2.125-1.875-4-4v-2c-4.074-1.61-6.79-2.48-11-1a101.46 101.46 0 0 0-3 3 133.473 133.473 0 0 1-6 3l-2-2 5-5 1.625-1.75c3.762-3.42 8.9-2.683 13.375-1.25z" fill="#B6E9FA"/><path d="M126 327c1.878 1.118 3.4 2.406 5.063 3.82 3.853 2.347 8.527 2.092 12.937 2.18l-1 2c-4.617 1.137-8.715 1.54-13.125-.313L128 333v-2a195.61 195.61 0 0 0-4.375-.188l-2.46-.105L119 331l-2 3h2l1-2 4 2v2h-11l-1 4 4 2-1 2c-6.646-2.338-6.646-2.338-8.438-5.688L106 336a948.854 948.854 0 0 1 3.313-3.375l1.863-1.898c4.614-4.368 8.721-4.683 14.824-3.727z" fill="#41AAF4"/><path d="M479 333h1l.375 2.438L481 338l2 1 1-3h3c-1.142 3.426-2.203 4.245-4.938 6.5-2.572 2.129-4.185 3.684-6.062 6.5h-2v2c-3.727 2.485-7.676 2.572-12 2-3.5-1.5-3.5-1.5-6-3 .506-2.169 1-4 2-6l2.625 1c4.816 1.427 7.91 1.564 12.625-.25 2.896-1.843 3.742-2.544 4.75-5.75.383-1.991.726-3.991 1-6z" fill="#BDE8F8"/><path d="M66 275c3.125.375 3.125.375 6 1l-2 1v2l2 1-1 2c-.23 2.371-.411 4.747-.563 7.125l-.253 3.883L70 296c-1.875.625-1.875.625-4 1l-2-2v-4h-3c-.558-9.484-.558-9.484 3-14l2-2z" fill="#57C1EF"/><path d="M31 130c2.805 1.606 5.115 3.358 7 6v4h-2l-.813-2.375c-1.035-2.906-1.035-2.906-4.187-4.625-2.28-.454-2.28-.454-4.688-.625l-2.449-.227L22 132l.559 1.828c.59 2.907-.317 4.542-1.559 7.172l4 2-4 1 1 6 3 1v2c-4.316-.48-6.202-1.702-9-5-1.892-3.785-1.746-7.898-1-12 3.621-5.79 9.504-7.735 16-6z" fill="#4180C9"/><path d="M406 0h4c-1.125 2.972-2.223 5.334-4 8h-2l-.25 1.875c-.988 2.8-2.154 2.866-4.75 4.125a177.537 177.537 0 0 0-2 4l-2.563 2.5c-2.3 2.36-3.083 3.316-3.437 6.5h2l.688 2.375c1.085 2.78 1.085 2.78 3.625 3.938C400 34 402.238 34.157 405 34v-2l3 1v2c-4.025 2.013-8.645 1.729-13 1-2.99-1.81-4.574-3.823-6-7-.852-4.302-.708-7.68 1.375-11.563C392 16 392 16 394 16v-2l2.125-1.625C400.219 8.993 403.615 4.77 406 0z" fill="#4D9AC1"/><path d="M240 320c3.687.257 5.786.856 8.875 2.938 2.586 3.727 2.97 6.035 2.738 10.507-1.296 5.4-5.514 8.76-9.601 12.254-3.843 3.414-5.428 5.512-5.95 10.738A94.402 94.402 0 0 0 236 361h-2c-1.353-4.06-1.67-7.76-1-12 2.135-2.788 3.78-4.466 7-5.875 3.333-1.875 5.295-4.743 7-8.125.5-3.626.5-3.626 0-7l-.125-2.313c-.835-2.057-.835-2.057-3.938-2.937L240 322v-2z" fill="#80CAE2"/><path d="M62 357c3 2.5 3 2.5 5 5-2.007-.502-4.009-1.002-6-1.563-2.31-.58-2.31-.58-6-.437l-2 4h3l3 2c-1.79.53-3.581 1.048-5.375 1.563l-3.023.878C48 369 48 369 46 368l-1 3c-3.523 2.883-6.477 3.406-11.004 3.234-3.608-.423-6.768-1.62-9.996-3.234l1-3 1.64 1.488c2.932 1.879 4.663 1.823 8.11 1.7l2.984-.083L40 371v-2c1.847-1.861 3.842-3.495 5.852-5.18 2.098-1.73 2.098-1.73 3.734-3.39 4.16-4.022 6.904-4.305 12.414-3.43z" fill="#398DD3"/><path d="m441 42 1 4-2.313 1.188c-2.775 1.588-2.775 1.588-4 4.062-2.08 3.39-4.67 5.436-7.69 7.98-2.678 2.373-4.772 4.973-6.997 7.77-1.688 1.875-1.688 1.875-3 3h-2v2c-1.61 1.516-1.61 1.516-3.75 3.25-2.631 2.214-4.73 4.172-6.5 7.125C404 85 404 85 401.812 85.688L400 86l-1 3v-2l-2-1 1.46-1.207 1.915-1.606 1.898-1.582c1.95-1.687 1.95-1.687 3.727-4.605h2l.813-1.938C410 73 410 73 413 72a203.6 203.6 0 0 0 2-4c1.7-1.64 1.7-1.64 3.688-3.25 3.558-3.006 6.562-6.21 9.578-9.75a138.637 138.637 0 0 1 5.546-6l1.708-1.75C437 46 437 46 439 46l2-4z" fill="#2DB6C2"/><path d="M412 66h5c-2.601 4.37-5.342 7.343-9.266 10.563-3.359 2.784-6.246 5.81-8.921 9.25L397 88h-2c-.474 7.787-.474 7.787 2 15 3.285 2.19 4.831 2.353 8.688 2.625l3.011.227L411 106c-2.926 2.926-5.783 2.427-9.785 2.656L399 109l-1 2-1-3-2.625-1.813c-3.438-4.614-2.639-8.281-2.031-13.847.816-4.155 1.726-6.322 4.656-9.34h2l1-3h2v-3a150.052 150.052 0 0 1 6-4l1-2h3v-5z" fill="#A4EEF9"/><path d="m537 83 2 1c-1.25 3.653-1.671 4.78-5 7l1 3h-3v-2l-9 2v2h-14l4-5c-.131-2.751-.131-2.751-1-5 4 2 4 2 5.75 3.125 3.52 1.369 6.604 1.747 10.25.875 3.278-2.038 6.145-4.41 9-7z" fill="#B9EAFA"/><path d="m551 103 4 1 1 4h2l1-5h1c.708 4.71.969 8.466-1.64 12.598-3.148 3.584-5.936 6.489-10.36 8.402-.75-2.125-.75-2.125-1-5l1.938-2.688c2.8-4.496 2.429-8.153 2.062-13.312z" fill="#C2EAF6"/><path d="M18 315h3l-1 5h-2l-.875 2.938C16 326 16 326 14 327c-4.529.543-7.99.536-12.063-1.625C0 323 0 323-.313 319.75L0 317l3 1v2h13v-3h2v-2z" fill="#D6EBFA"/><path d="M62 221c2 1.5 2 1.5 3 3-1.825-.03-1.825-.03-3.688-.063-1.437.018-2.875.039-4.312.063h-2.625c-3.482 1.466-4.962 4.112-7.043 7.188C46 233 46 233 44 234l-1 3h-3l-1 3h-2l-.25 1.75c-1.003 3.008-2.258 4.297-4.75 6.25-3.25.75-3.25.75-6 1 3.362-4.853 6.77-8.914 11.352-12.645 2.383-1.96 4.493-4.148 6.648-6.355 1.393-1.42 2.789-2.836 4.188-4.25l2.042-2.078c3.462-3.27 7.204-3.232 11.77-2.672z" fill="#498AC3"/><path d="M545 97c2 1.5 2 1.5 3 3l-7-1v19l-5-1c-1.095-3.285-1.066-5.677-1-9.125a136.47 136.47 0 0 0 0-5.875l-1-1 1-3c3.17-1.585 6.547-1.424 10-1z" fill="#38ADFC"/><path d="M493 92c2.99 3.732 2.99 3.732 3.074 6.14L495 104l-3 1v-4h-6l1 3-6 3v2h3v3l-2-.5c-2.53-.422-4.589-.508-7.125-.438C471 111 471 111 468 109l1.902-.17c7.566-1.033 11.191-3.889 16.223-9.455l2.031-2.14A328.304 328.304 0 0 0 493 92z" fill="#BCECFA"/><path d="m44 298 2 1c-3.41 4.368-7.037 7.878-11.328 11.387-1.929 1.612-1.929 1.612-2.672 4.613l-1.875.875c-2.31.975-2.31.975-3.375 3.375-2.451 3.852-5.717 6.6-9.75 8.75-2.758.168-2.758.168-5 0v2H4v-3l-4 1v-5l1.938 1.5c4.025 1.972 7.647 2.271 12.062 1.5 4.344-2.229 7.572-5.31 10.957-8.762l1.66-1.668c1.737-1.748 3.466-3.503 5.195-5.257l3.545-3.573c2.887-2.908 5.766-5.822 8.643-8.74z" fill="#508AC4"/><path d="M78 277c2.558.54 3.795.81 5.75 2.625 1.756 3.337 1.636 5.645 1.25 9.375-1.236 3.277-2.11 5.34-4.938 7.438-2.406.656-3.737.393-6.062-.438l2-1c2.337-5.972 2.207-11.65 2-18z" fill="#3874F5"/><path d="M467 51h4c1.757 4.974 3.326 9.742 4 15l2-2h3c.125 2.875.125 2.875 0 6-2 2-2 2-3.898 2.402-2.725.775-3.827 2.089-5.727 4.16A68.897 68.897 0 0 1 467 80h-2l-1-3 2.313-2.188c3.261-3.413 5.352-5.928 6.187-10.624-.612-3.9-2.173-6.252-4.406-9.454C467 53 467 53 467 51z" fill="#4083D4"/><path d="m16 151 2 1 1-1 3 1c1.728.068 3.458.085 5.188.063l2.73-.028L32 152l-1 2a99.148 99.148 0 0 1-7.063 1.125l-3.91.508L17 156l3 2v2h9v-2h2v-2l3 1c-2.912 3.112-4.778 4.79-9.156 5.203l-2.344.047-2.344.078c-2.704-.411-3.344-1.343-5.156-3.328-3.285-2.12-5.883-2.217-9.75-2.125l-2.984.055L0 157v-2c1.562-.17 3.125-.336 4.688-.5l2.636-.281c2.573-.21 5.096-.256 7.676-.219l1-3z" fill="#BEE9F9"/><path d="M173 313c3.075 1.703 5.406 3.812 7 7 .556 5.439.465 9.525-3 14-2.26-3.595-2.209-6.566-2.125-10.75l.055-3.547L175 317c-3.333-1.782-6.245-2.488-10-3l1 3c-1.125 1.5-1.125 1.5-3 3-3.188.188-3.188.188-6 0 4.946-6.117 7.841-8.26 16-7z" fill="#6BD1E4"/><path d="M458 12h2l2 17-3-1-2 4h-3v2h-2l.625 1.875L453 38c-2 2-2 2-5 3l-2 3-4-3a864.517 864.517 0 0 1 4.375-4.5l2.46-2.531C451 32 451 32 453 32l.813-1.688C455 28 455 28 456.625 25.938c2.116-4.52 1.607-9.024 1.375-13.937z" fill="#29A8C4"/><path d="m301 329 2.188.125c3.258 1.573 4.239 3.673 5.812 6.875.708 4.066 1.184 8.161-1.129 11.754-1.371 1.371-1.371 1.371-3.871 3.246.875-3.875.875-3.875 2-5 .233-1.682.413-3.371.563-5.063l.253-2.785L307 336h-3v-4l-9-1-2 5h-7v-2c4.669-4.002 8.794-5.716 15-5z" fill="#99D8EF"/><path d="m437 80 1 4-3 2.063c-1.7 1.304-1.7 1.304-3 2.937-.502 3.71-.502 3.71 0 7h-2v-3c-1.887-.035-1.887-.035-4 1-1.595 2.242-2.745 4.536-4 7h-2v2c-2.303 2.217-3.525 2.968-6.75 3.188L411 106l5-5 2.625-2.75C421 96 421 96 424 95l.875-1.813c1.49-2.896 3.577-4.16 6.125-6.187 2.081-2.267 4.052-4.617 6-7z" fill="#ABEAF8"/><path d="M500 82c12.895-.689 12.895-.689 16.75 1.875C519 86 519 86 520 88c-1.625.75-1.625.75-4 1l-2.75-1.938c-3.133-1.988-5.271-2.938-9.016-2.8-5.005 1.654-8.643 6.03-12.234 9.738v-9c3.01-.934 3.867-1.044 7 0l1-3z" fill="#2596C8"/><path d="m432 72 5 2v2l4 1c-3.741 4.583-7.593 8.525-12.098 12.355-2.431 2.102-4.666 4.339-6.902 6.645l-1-3h2v-2l3-2 .938-2.063L428 85a93.365 93.365 0 0 1 4-1l1-3c1.563-1.688 1.563-1.688 3-3h-2v2l-4-1 2-7z" fill="#18ACC8"/><path d="M546 100c1.875.313 1.875.313 4 1 2.662 3.993 2.73 7.303 2 12-2 2.563-2 2.563-4 4l-3-1c-1-3-1-3 0-6 .543-3.378 1-6.577 1-10z" fill="#3973E9"/><path d="m535 322 1 3c-2.313 3.188-2.313 3.188-5 6h-2l-1 2-3 2-.375 3-.625 3c-2.476 1.397-4.163 2-7 2-1.645 2.463-1.645 2.463-3 5l-4-1 25-25z" fill="#B2E4F7"/><path d="m279 343 2 1c-1.9 3.515-3.566 5.896-7 8h-2v4l-3 1-2.063 2.063L265 361h-2l-.688 1.938C261 365 261 365 258.375 365.75L256 366c4.358-5.21 8.934-10.087 13.75-14.875l2.035-2.047 1.95-1.945 1.756-1.754C277 344 277 344 279 343z" fill="#8AD0EC"/><path d="m492 88.188 2 .812c-2.791 4.894-5.259 8.749-10 12l-2-2v-3h-2c1.343-4.028 3.39-4.93 6.922-7.059C489 88 489 88 492 88.187z" fill="#189ED1"/><path d="m228 325 1 3-2.125 2.063c-2.069 2.063-3.99 4.205-5.875 6.437-2.544 2.996-5.1 5.842-8 8.5h-2v2h-2v2h-2v2l-4-1 25-25z" fill="#7EC2DC"/><path d="m381 38 7 1 1 2h-5l1 3 3 1v5h-2v-2h-3l2 10h-5l1-20z" fill="#3472E3"/><path d="M123.668 326.39c3.128.818 4.966 2.364 7.394 4.43 3.854 2.347 8.528 2.092 12.938 2.18l-1 2c-4.617 1.137-8.715 1.54-13.125-.313L128 333v-2l-12-2v2l-3 1a90.223 90.223 0 0 0-4 4l-2-1c5.055-5.47 8.926-9.228 16.668-8.61z" fill="#57AFE3"/><path d="M550 292c2.43 2.532 2.988 3.888 3.375 7.438-.703 6.674-4.96 10.414-9.563 14.875l-1.693 1.666A1041.087 1041.087 0 0 1 538 320c-.934-3.01-1.044-3.867 0-7l6-1v-3l2.5-1c2.77-1.735 2.77-1.735 2.797-4.531-.031-1.96-.103-3.919-.219-5.875C549 295 549 295 550 292z" fill="#4695BA"/><path d="M529 294c0 3.933-.49 5.477-3.25 8.313L523 305a205.115 205.115 0 0 0-2.5 3.125c-2.398 2.758-4.345 4.132-7.5 5.875-2.409 2.065-2.963 2.89-4 6h-5c1.375-2 1.375-2 3-4h2v-2h2l1-3c1.938-2.188 1.938-2.188 4-4h2l.688-1.688c1.682-2.965 3.848-4.966 6.312-7.312l2.313-2.313L529 294z" fill="#509CC1"/><path d="M32 152h2v4h-3v2h-2v2c-1.414.136-2.832.232-4.25.313l-2.39.175c-3.421-.708-4.443-2.696-6.36-5.488l3.246-.402 4.192-.536 2.142-.263c3.508-.181 3.508-.181 6.42-1.799z" fill="#D6ECF7"/><path d="m382 37-2.813 2.063C375.66 41.998 374.423 44.654 373 49v4h2l2 4c-3 0-3 0-4.625-1.375-2.794-3.302-2.707-6.185-2.66-10.367.426-3.372 1.82-4.998 4.285-7.258 2.996-2.06 4.586-2.22 8-1z" fill="#478DC9"/><path d="m528 355 2.313.5c2.723.591 2.723.591 5.687.5a105.022 105.022 0 0 1-4 5h-2l-1 3h-2v2a381.113 381.113 0 0 1-6 5l-1 2-4-1v-2l6-3v-3l2-1 1-2 3-1v-5z" fill="#B9E5F8"/><path d="M548 354c3.5 2.042 5.806 4.09 7 8 .79 6.948.79 6.948-1.5 10l-1.5 1c-1-3-1-3-.5-5.813.53-3.383.133-5.848-.5-9.187l-2.773-.148-3.602-.227c-1.183-.07-2.367-.14-3.586-.21C538 357 538 357 536 355c3.702-1.851 7.96-1.465 12-1z" fill="#4A8DBF"/><path d="m66 278 3 1v14h-5c-1.494-4.483-1.724-9.517 0-14l2-1z" fill="#43D5FE"/><path d="M469 59h3c1.496 2.992 1.427 4.642 1 8-1.774 3.171-3.827 6.09-6 9l-3-1v-6l3-1c.733-2.015.733-2.015 1-4h2l-1-5z" fill="#C3E9F6"/><path d="M172 336h2v11h2c4.081 4.576 5.28 7.82 5.234 13.992-.331 2.843-1.539 4.748-3.234 7.008-1.526-3.053-.838-5.758-.563-9.125l.31-3.883L178 352h-4c-2.271-5.395-2.204-10.262-2-16z" fill="#67D2EA"/><path d="m19 286 3 1-21 21-1-4h3l2-6h4l-1-3h2l1-4h5v-3h3v-2z" fill="#4E85C5"/><path d="M48 352h16v2h3v4h-3v-2a497.982 497.982 0 0 0-5.75-.125l-3.234-.07c-2.94.19-4.54.668-7.016 2.195v-6z" fill="#DFEAF5"/><path d="m42 263 3 1-22 22c-1-3-1-3 .188-5.563 2.549-3.428 4.845-4.115 8.812-5.437v-3l2-1 1-3h3v-2c1.813-1.688 1.813-1.688 4-3z" fill="#518DC2"/><path d="M181 349h2v5h3c3 5.75 3 5.75 3 8l-3 2c-.724 2.06-.724 2.06-1 4h-4l.254-2.125c.63-5.875.735-11.049-.254-16.875z" fill="#DDE7F6"/><path d="m462 320 3.938.563c4.867.556 9.222.128 14.062-.563v10h-3l-2.063-2.938c-1.763-2.312-2.612-2.983-5.484-3.683A84.628 84.628 0 0 0 462 323v-3z" fill="#C2E4FD"/><path d="M249 338c1 3 1 3 0 5.313-2.544 3.418-5.434 6.329-9 8.687h-3l1 12-2-1c-.898-4.261-1.038-7.75 0-12 3.497-5.055 8.35-9.04 13-13z" fill="#BFE9FA"/><path d="M456 12c3 2 3 2 3.398 3.988-.064 6.365-1.13 9.615-5.586 14.325L451 33c-1.44 1.435-2.878 2.872-4.313 4.313L443 41l-1-3h2l2-4h2v-2l2-1a78.037 78.037 0 0 0 2-5h4V12z" fill="#9DEEFA"/><path d="M394 91h1l1.27 6.055c.653 2.315.653 2.315 3.73 3.945v3c7.224.747 7.224.747 13.5-2.313 2.57-2.618 2.57-2.618 4.5-5.687l3 1c-9.463 9.733-9.463 9.733-16 10-3.57-.91-5.924-1.95-9-4-2.177-4.01-2.177-7.498-2-12z" fill="#2EB2BC"/><path d="M556 355c2.179 3.835 2.1 5.555 1.125 9.875L556 368h-1l-.688-3.688c-1.15-4.378-2.402-6.759-6.312-9.312-2.911-.248-5.66-.19-8.574.02C537 355 537 355 535 353c7.17-2.044 14.603-1.998 21 2z" fill="#B8EAFB"/><path d="M402 0h4c-1.366 4.007-3.171 6.677-6 9.813l-2.125 2.394C396 14 396 14 394 14l-1 2c-.93-2.606-1.15-3.642-.063-6.25L394 8h2l1-2 4-4 1-2z" fill="#B3E7FA"/><path d="m156 320 1 3c-1.438 2.688-1.438 2.688-3 5h2v2c-2.5 1.625-2.5 1.625-5 3v-2h-2v2c-2.375.625-2.375.625-5 1l-2-2 2.2-1.207c2.96-1.895 5.168-3.963 7.613-6.48l2.394-2.45L156 320z" fill="#54C3F1"/><path d="m14 256 4 1-3 1-.809 1.672c-1.776 3.47-4.485 5.871-7.254 8.578l-1.681 1.68C1.14 274 1.14 274 0 274c-.188-2.875-.188-2.875 0-6l3-2a340.18 340.18 0 0 0 4.563-3.438l2.378-1.808c2.266-1.769 2.266-1.769 4.059-4.754z" fill="#50AEE4"/><path d="M465 52c3.736 1.245 4.188 2.634 6 6h-4v-3l-1.46 1.313c-.633.556-1.264 1.113-1.915 1.687l-1.898 1.688C460 61 460 61 458 61l-.875 2.313C456 66 456 66 454 69c-3.125.688-3.125.688-6 1 3.898-4.79 7.82-9.276 12.688-13.125 2.504-1.84 2.504-1.84 4.312-4.875z" fill="#A8E6F8"/><path d="m57 138 3 1v2l7 1v11h-3v-4h2v-5l-2.082.07-2.73.055-2.708.07C56 144 56 144 53 142l4-4z" fill="#35C1CD"/><path d="m47 363 1 4-2 1-1 3c-3.523 2.883-6.477 3.406-11.004 3.234-3.608-.423-6.768-1.62-9.996-3.234l1-3 1.64 1.488c2.932 1.879 4.663 1.823 8.11 1.7l2.984-.083L40 371v-2c1.531-1.508 1.531-1.508 3.5-3.125l1.969-1.633L47 363z" fill="#4888C1"/><path d="M118 346c2.534 2.534 2.326 3.545 2.375 7.063-.072 5.003-1.167 8.44-3.418 12.855-1.39 3.022-1.676 5.785-1.957 9.082h-2c-.054-1.75-.093-3.5-.125-5.25l-.07-2.953c.202-2.894.637-4.382 2.195-6.797l1.613-1.395c2.045-2.366 1.683-4.229 1.575-7.293l-.083-3.011L118 346z" fill="#3BA6E1"/><path d="m550 307 2 4-5 6-3-1-1 4h-3v2l-4-1 14-14z" fill="#B2E6F7"/><path d="m428 14 1 2 3 1-1 3h-2v2h-6l-.75 1.813c-1.414 2.473-2.9 3.62-5.25 5.187 1.278-4.847 2.992-7.45 6.625-10.875l2.477-2.367L428 14z" fill="#BDE9FC"/><path d="m533 99 1 3-1 1c-.493 5.45.116 9.85 2 15l-1 2c-3.67-3.315-4.719-5.38-5.238-10.219-.203-6.217-.203-6.217 2.238-9.344L533 99z" fill="#5ED9F1"/><path d="m459 325 2 1-.762 1.941c-2.212 6.018-2.212 6.018-1.113 12.122 1.608 3.198 1.608 3.198 4.875 3.937v2c-3.809-.846-5.57-1.397-7.875-4.625-1.426-4.277-1.625-6.872-1.125-11.375 2-3 2-3 4-5z" fill="#66D9EC"/><path d="m449.5 346.375 2.406.273C454 347 454 347 456 348v2l3 1c-3.392 1.13-5.545.723-9 0a194.485 194.485 0 0 0-7 0v-4c2.485-1.243 3.764-.954 6.5-.625z" fill="#4E95C7"/><path d="M473 327c3 2 3 2 4 5 .347 6.48.347 6.48-2 10l-2-1v2h-2l.5-1.875c.594-3.716.526-7.261.438-11.016C472 328 472 328 473 327z" fill="#346FF9"/><path d="m27 230 2 4-4 1v8c2.21.105 2.21.105 5-1v-2l3 1-6 7-3-1c-1.961-3.923-1.486-8.723-1-13 2-2.688 2-2.688 4-4z" fill="#BFEAFB"/><path d="m545 97 3 3h-10v12h-2c-.09-1.065-.09-1.065-.184-2.152l-.254-2.785c-.08-.917-.162-1.834-.246-2.778-.076-2.247-.076-2.247-1.316-3.285l1-3c3.115-1.558 6.604-1.565 10-1z" fill="#48B5F7"/><path d="M497 80h16v2l-2.809.148-3.628.227-3.622.21c-.97.138-1.94.274-2.941.415l-1 2-4-1 2-4zm-6 4c2.125.375 2.125.375 4 1h-3v3l-5 2c1.152-2.468 2.048-4.048 4-6z" fill="#1997DF"/><path d="M30 349h2c.625 1.813.625 1.813 1 4l-2 3-.375 3.563L30 363c-2.04 1.215-2.04 1.215-4 2-.543-6.655.227-10.458 4-16z" fill="#E3E7FB"/><path d="M85 290h2v6l-2.375.625c-2.934 1.182-2.934 1.182-3.938 4.5L80 304l-7-1v-2l-3-1 6.152-.586L78 299l1-2h2l1-3h2l1-4z" fill="#DAECFD"/><path d="m553 109 3 1v2h2c-1.278 5.964-4.337 8.484-9 12l-2-1 1-5h4v-2l2-1 1-3h-2v-3z" fill="#C1EDEF"/><path d="M473.813 31.563 476 32a121714172.138 121714172.138 0 0 0-2.375 3.313l-1.336 1.863A214.957 214.957 0 0 0 469 42h-2l.188 2.813C467 48 467 48 465.488 49.699c-.49.43-.982.859-1.488 1.301 2.005-18.223 2.005-18.223 9.813-19.438z" fill="#2198D7"/><path d="m421 17 3 1a417.694 417.694 0 0 1-2.875 3.5l-1.617 1.969L418 25h-2l-.688 1.75c-1.642 2.816-3.707 4.33-6.312 6.25v-5h2l.688-1.813c1.651-2.753 3.55-3.63 6.312-5.187l1-2h2v-2z" fill="#4B96C5"/><path d="m258 365 3 1c-3.061 2.624-3.732 3-8 3v2c-3 2-3 2-5.375 1.75-2.632-.752-5.11-1.672-7.625-2.75v-3l2.063.5c6.41 1.091 10.206.496 15.937-2.5z" fill="#7ECBE1"/><path d="M456 80h6v2h-2v20h2l2 4-5-2-.184-1.828-.253-2.422-.247-2.39c-.268-2.339-.268-2.339-.851-4.497-.578-2.317-.465-4.48-.465-6.863l-1-3v-3z" fill="#ACE0F7"/><path d="M494 11h2c.313 2.313.313 2.313 0 5-2.188 1.5-2.188 1.5-5 3a119.86 119.86 0 0 0-6.625 6.813C483 27 483 27 480 27v-3c1.75-1.535 1.75-1.535 4-3.063 2.204-1.461 2.204-1.461 4-2.937v-2h4l.438-1.938C493 12 493 12 494 11z" fill="#2492DA"/><path d="M165 314c4.606-.321 7.335.09 11 3v3h-11v-6z" fill="#44D2F4"/><path d="M29 144h3v2c2.169-.506 4-1 6-2-2.141 6.094-2.141 6.094-5 8-2.68.547-5.263.776-8 1l3-1 1-8z" fill="#3B66DB"/><path d="M105 337h2v2c3.588 1.866 7.278 3.425 11 5v2h-6v-3l-1.5.563c-3.65.638-6.84-.014-10.5-.563l2-3h2l1-3z" fill="#3A9FD9"/><path d="M36 210c2 2 2 2 2.25 5.688-.133 4.061-.624 7.542-2.25 11.312-3 2-3 2-6 3l-2-1 1.496-1.363c4.95-4.97 6.313-8.517 6.531-15.512L36 210z" fill="#C0E9F9"/><path d="M532 83c2.188.313 2.188.313 4 1-6.664 6.844-6.664 6.844-9.973 7.23-5.805-.119-5.805-.119-8.027-1.23v-2l2.3-.332 3.013-.48 2.988-.458c2.88-.779 3.746-1.587 5.699-3.73z" fill="#3491C8"/><path d="m303 352 1 3c-1.293 1.973-1.293 1.973-3.188 4.063l-1.855 2.097C297 363 297 363 294.824 364.06c-2.184.858-2.184.858-2.824 3.941l-4-1 15-15z" fill="#C3EFFE"/><path d="m439 345 3 1v3h-2l-1 3a522.49 522.49 0 0 1-5 4l-2.188 2.75L430 361h-2v-2h2l.813-1.625L432 355l1.375-3c1.58-2.918 3.17-4.8 5.625-7z" fill="#BCE8F9"/><path d="M21 144h8c1 2 1 2 .063 5.125L28 152c-3.23-.557-5.024-1.332-7-4v-4z" fill="#357BDF"/><path d="M393 38h10l-4 3c-.985 4.35-1.108 8.552-1 13h-2l-1 2 .035-1.723c.253-8.373.253-8.373-2.035-16.277z" fill="#C4EBF1"/><path d="M474 0h2l-1 3-1-3zm-2 3 2 1c-2.458 5.734-6.289 8.641-12 11l-2-1v-2l-2-1 1-2 2.25.625c3.205.437 4.141.226 6.75-1.625 2.228-2.534 2.228-2.534 4-5z" fill="#219CD8"/><path d="m533 358 3 1v2a248.46 248.46 0 0 1-5.113 3.637c-3.651 2.638-6.453 5.06-7.887 9.363l-6 1 1-2h2l1-3c1.938-2.188 1.938-2.188 4-4h2v-2c1.375-1.625 1.375-1.625 3-3h2l1-3z" fill="#4C8CC0"/><path d="M39 275c-.188 1.875-.188 1.875-1 4-1.66.681-3.328 1.347-5 2-1.468 1.851-1.468 1.851-2 4l1 3-3.375.438c-3.446.346-3.446.346-5.625 1.562 1.157-3.47 2.18-3.886 5-6l1-3c2.785-3.17 5.582-6 10-6z" fill="#DCEBF9"/><path d="m537.688 95.75 3.574.11L544 96v1l-1.793.297-2.394.453-2.356.422c-3.245 1.094-5.097 2.335-7.457 4.828-.603 3.27-.603 3.27-.313 6.75l.137 3.547L530 116c-2.364-3.546-2.298-5.233-2.313-9.438l-.05-3.433c.792-6.82 3.556-7.636 10.05-7.379z" fill="#9CEFFE"/><path d="m44 298 2 1c-3.41 4.368-7.037 7.878-11.328 11.387-1.929 1.612-1.929 1.612-2.672 4.613-1.324.685-2.66 1.349-4 2a89.782 89.782 0 0 0-4 4c0-3 0-3 1.836-5.177l2.539-2.491 2.734-2.705L34 307.812A1783.8 1783.8 0 0 1 44 298z" fill="#4882B7"/><path d="m510 84-1 3c-1.674.788-3.355 1.565-5.078 2.238C501.194 90.32 498.61 91.663 496 93l-2-2c5.243-5.466 8.312-7.961 16-7z" fill="#A6E4F7"/><path d="m440 41 2 1c-1.12 1.12-2.239 2.238-3.36 3.355a734.44 734.44 0 0 0-3.718 3.758l-2.172 2.2-2.078 2.113C429 55 429 55 428 55v-6l4 1v-6l3.438-.938c3.35-.691 3.35-.691 4.562-2.062z" fill="#B1F0FC"/><path d="M176 320h4c.324 5.504.533 9.437-3 14-2.03-3.315-2.127-5.432-1.625-9.25l.336-2.703L176 320z" fill="#51D3F0"/><path d="M545 288c-1 3-1 3-3 5-2.059.703-2.059.703-4.438 1.25l-2.37.578C533 295 533 295 530 293c5.2-4.357 8.227-5.128 15-5z" fill="#47A3C6"/><path d="M539 82c6.836-.732 6.836-.732 10.066 1.3 1.33 1.091 2.653 2.19 3.97 3.298 2.968 2.118 5.371 2.252 8.964 2.402-1.063 1.563-1.063 1.563-3 3-3.563-.125-3.563-.125-7-1l-2-3-3-1v-3l-8-1v-1z" fill="#9BDCF7"/><path d="m462 80 2 1-3 21h-1a2125.9 2125.9 0 0 1-.563-8.875l-.17-2.55-.146-2.442-.143-2.254C459 84 459 84 460 82h2v-2z" fill="#418AC7"/><path d="m529 82 1 4c-3.402 2.094-6.053 2.18-10 2l-1-5c3.38-1.04 6.478-1.08 10-1z" fill="#1792E2"/><path d="m466 325 4 1h-2v18l-4 1v-6h2v-14z" fill="#3EA5FD"/><path d="M64 136c2.438 2 2.438 2 4 4-3.049.07-5.62.111-8.563-.75-2.655-.545-2.655-.545-5.124 1.688L52 143h-2v-3c4.843-3.163 8.027-4.902 14-4z" fill="#4CB7C4"/><path d="M463 324c9.123-.627 9.123-.627 12.625 1.875C477 328 477 328 477 330h2c.081 1.437.14 2.874.188 4.313l.105 2.425c-.355 2.74-1.187 3.554-3.293 5.262l.07-2.047.055-2.703.07-2.672c-.208-2.747-.65-4.307-2.195-6.578l-3-1v-2h-8v-1z" fill="#4373D3"/><path d="M467 329h2l.148 3.027.227 3.91c.07 1.288.14 2.576.21 3.903.138 1.043.274 2.086.415 3.16l2 1v2c-2.709 1.354-5.01 1.065-8 1v-2l3-1v-15z" fill="#4293FC"/><path d="M89 272h2c-.601 5.65-2.075 10.662-4 16-2.136-3.204-2.231-4.02-2.125-7.688l.055-2.449L85 276h2l2-4z" fill="#D9EBF2"/><path d="m34 156 1 3-3 1v3c-2.595 1.298-4.542 1.133-7.438 1.125l-2.933.008C19 164 19 164 16 163l1-3 1 1c5.408.581 9.588.476 14-3l2-2z" fill="#68BAD0"/><path d="m32 135 4 1v4h2c-.313 2.375-.313 2.375-1 5l-3 2-2-1v-2h2l-1-1.688c-1.131-2.615-1.157-4.493-1-7.312z" fill="#3157F5"/><path d="M66 225h2c2.823 4.235 2.794 8.026 2 13-1.418 2.515-2.877 3.983-5 6l-1-4h2c1.236-5.1 1.675-9.976 0-15z" fill="#5090BC"/><path d="M42 179c0 4.316-2.133 5.928-5 9h-2v2h-2l-1 2v-7h4l.75-1.875c1.456-2.476 2.628-3.076 5.25-4.125z" fill="#5AB6CA"/><path d="m433 81 3 1c-3.392 4.15-6.704 7.75-11 11a98.28 98.28 0 0 0-3 3l-1-3h2v-2l3-2 .938-2.063L428 85a93.365 93.365 0 0 1 4-1l1-3z" fill="#1FB0BD"/><path d="M82 279c1.5 1.063 1.5 1.063 3 3 .587 5.185-.152 8.626-3 13-1.938 1.438-1.938 1.438-4 2-2.25-.375-2.25-.375-4-1 3-2 3-2 6-2v-3h2v-3h2l-1-2.25C82 283 82 283 82 279z" fill="#4573CB"/><path d="M56 160h3c-.56 3.243-1.413 4.93-4 7h-2v2h-2l-2 4h-1c-.375-2.188-.375-2.188 0-5 2.875-2.625 2.875-2.625 6-5l2-3z" fill="#39C1D1"/><path d="m442 32-.563 2.25c-.429 2.7-.288 4.196.563 6.75l-3 1c-2.188-1.188-2.188-1.188-4-3v-4h2v-2c2-1 2-1 5-1z" fill="#C1EBF8"/><path d="M460 327h2v15l-3-1c-1.386-3.15-2.38-5.6-1.453-9.02.733-1.699 1.586-3.345 2.453-4.98z" fill="#3ED9F9"/><path d="M384 37c3.689.498 5.685 1.024 8 4 2.191 3.344 2.404 6.045 2 10-1.5 2.875-1.5 2.875-3 5l-2-1v-4l3-1v-6h-2l-.75-1.813c-1.414-2.473-2.9-3.62-5.25-5.187z" fill="#3C61CB"/><path d="m420 360 1 2-2 1 2 1v3l2 1-3 1-1 3c-1.563-1-1.563-1-3-3 .033-2.766.506-5.26 1-8l3-1z" fill="#CEE8F5"/><path d="M26.563 351.938 29 352l-.96 1.703c-1.109 2.449-1.43 4.38-1.665 7.047l-.227 2.422L26 365l-1-2h-2c0-10.976 0-10.976 3.563-11.063z" fill="#D7E8F0"/><path d="M63 164c.695 1.734.695 1.734 1 4-1.258 2.14-1.258 2.14-3.125 4.25l-1.82 2.14c-2.53 1.982-3.919 1.936-7.055 1.61l2.125-2.063c3.154-3.145 6.014-6.526 8.875-9.937z" fill="#DDE6FA"/><path d="M539 83c5.75-.125 5.75-.125 8 1-.688 1.938-.688 1.938-2 4-2.5.875-2.5.875-5 1l-2-2c.375-2.125.375-2.125 1-4z" fill="#C1ECF4"/><path d="M514 80h12l-1 3h-6l1 4-6-3v-4z" fill="#1C90D7"/><path d="M138 320c12 0 12 0 14 1l-2 5-2.063-.875c-3.266-1.251-6.565-2.2-9.937-3.125v-2z" fill="#DCEAF4"/><path d="m0 317 3 1v2h9v4H6l-1-2H0v-5z" fill="#E5EAF0"/><path d="M29 194h1l.113 2.047.2 2.703.175 2.672c.579 2.915 1.665 4.3 3.512 6.578v2h-2l-1-4h-3c-1.174-3.52-1.201-6.306-1-10l2-2z" fill="#60B7CC"/><path d="M48 143v5h-4l1 3h1v5h-4c-.614-7.244-.614-7.244 2.438-11C47 143 47 143 48 143z" fill="#43BBC7"/><path d="m68 140 3 2c.813 4.506.505 8.787-1.25 13-1.804 2.061-3.204 3.034-5.75 4l1-5 3-1c.196-1.603.381-3.208.563-4.813l.316-2.707c.278-2.614.278-2.614-.879-5.48z" fill="#56B8C4"/><path d="M412 66h5c-2.892 4.858-6.22 8.873-11 12h-3l-1 2v-3a150.052 150.052 0 0 1 6-4l1-2h3v-5z" fill="#B1F0FC"/><path d="m32 341 2 2-11 11-1-3c2.313-3.188 2.313-3.188 5-6h2v-2h3v-2z" fill="#4F8DC6"/><path d="m71 281 2 1c.082 1.582.14 3.166.188 4.75l.105 2.672c-.344 3.025-1.295 4.334-3.293 6.578l-2-2h2l-.035-2.59-.028-3.348-.035-3.34C70 282 70 282 71 281z" fill="#3FADF8"/><path d="m548 105 4 1c.492 6.4.492 6.4-2 9.438L548 117c-1.16-4.256-.762-7.684 0-12z" fill="#355EEB"/><path d="m212 371.875 2.063-.008C216 372 216 372 219 373v2h-15c1.69-3.38 4.587-3.138 8-3.125z" fill="#58E6F6"/><path d="m458 344 12 3v1l-7 1v-2l-2 1 1 2c-3.75 1.125-3.75 1.125-6 0 .506-2.169 1-4 2-6z" fill="#B6E7FC"/><path d="M61 243h2c-.474 4.263-2.922 6.215-6 9l-3 2v-2l-2-1 2-3h4l1-3h2v-2z" fill="#4B90C3"/><path d="m65 135 1 2-1.723-.14c-6.092-.285-9.242.716-14.277 4.14l-3 2-1-4h4v-2c5.13-2.104 9.561-2.218 15-2z" fill="#B0E9F9"/><path d="m542 112 3 1v3l4 1c-2.678 2.8-4.01 3.938-8 4.188-3-.188-3-.188-5-2.188h8l-2-7z" fill="#5090E3"/><path d="M464 96h5v2l8-2-1 4h-11l-1-4z" fill="#258ED3"/><path d="m458 57 2 1c-3.06 3.935-5.491 6.681-10 9l1-8 2.375-.438c2.59-.44 2.59-.44 4.625-1.562z" fill="#1CA8C2"/><path d="M472 0h2c0 3 0 3-2.188 5.5-2.51 2.231-4.872 3.904-7.812 5.5l-1-2c1.813-2.5 1.813-2.5 4-5h3l2-4z" fill="#288CD4"/><path d="M492 361c2.188.313 2.188.313 4 1l-2.313 2c-3.255 3.209-4.302 6.698-5.687 11h-1v-9h2v-2c1.25-1.688 1.25-1.688 3-3z" fill="#498CC1"/><path d="M462 323c2.383-.293 2.383-.293 5.125-.188l2.758.083L472 323v1l-6 1v8h-2l-.313-2.375c-.463-2.955-.463-2.955-3.687-4.625l2-3z" fill="#54B9ED"/><path d="M70 274c5.415-.37 5.415-.37 8.375 1.5L80 277h-2v4l-3 1-.813-2.438L73 277l-3-1v-2z" fill="#4691E8"/><path d="m47 266 2 3c-2 3-2 3-3.938 3.75C43 273 43 273 40 272v2h-2l1-5 2.875-.375c3.212-.342 3.212-.342 5.125-2.625z" fill="#DCE9F7"/><path d="M399 87v13l-3-1c-1.283-3.85-1.066-6.947-1-11 2-1 2-1 4-1z" fill="#0FBCC0"/><path d="m492 80 3 1-4 3-2-1 3-3zm-4 4 1 3c-2.808 2.964-5.183 5.445-9 7 .125-1.75.125-1.75 1-4a125.024 125.024 0 0 1 6-4l1-2z" fill="#2A85D9"/><path d="M393 51c1.04 3.38 1.08 6.478 1 10l-3 1v-2h-5l1.277-1.46 1.66-1.915 1.653-1.898c1.48-1.683 1.48-1.683 2.41-3.727z" fill="#B7E0F8"/><path d="m441 42 1 4-2.313 1.188c-2.837 1.625-2.837 1.625-4.187 4.437C434 54 434 54 431.312 54.813L429 55a323.627 323.627 0 0 1 2.75-3.375l1.547-1.898C435.089 47.91 436.724 47.1 439 46c1.268-2.034 1.268-2.034 2-4z" fill="#35AFC3"/><path d="m211.563 369.75 2.378-.078L216 370l2 3-2.047-.07-2.703-.055-2.672-.07c-2.59.032-2.59.032-4.719 1.265L204 375l-3-1c3.179-3.482 5.93-4.158 10.563-4.25z" fill="#58CAE4"/><path d="M296 352h7c-6.15 7.483-6.15 7.483-10 10 .63-2.94 1.66-5.32 3-8v-2z" fill="#92D9EF"/><path d="M99 343v3l-2 2c-.643 2.069-.643 2.069-1 4h-4l1 4-5-1c3.509-4.184 7.08-8.196 11-12z" fill="#5BA1CA"/><path d="m66 275 2 1-2 3h-2v12h-3c-.558-9.484-.558-9.484 3-14l2-2z" fill="#70DDEF"/><path d="M467 51h4c2.48 6.243 3.32 11.283 3 18h-1l-.297-1.977c-.977-5.71-2.238-9.403-5.703-14.023v-2z" fill="#3F7FC7"/><path d="m505 0 4 1-1.426 1.172C504.318 4.895 501.345 7.412 499 11l-3-1 9-10z" fill="#238CDE"/><path d="M240 345v3l-1.457 1.363c-2.09 2.218-2.036 3.824-2.23 6.825l-.2 2.73L236 361h-2c-.567-9.64-.567-9.64 3-14l3-2z" fill="#7FC6DB"/><path d="M169 336h3l.184 2.047.254 2.703.246 2.672A44.11 44.11 0 0 0 174 350c-3.127-2.085-3.83-2.58-5-6-.16-2.691-.09-5.299 0-8z" fill="#41D5F5"/><path d="M76 281h2c1.517 9.41 1.517 9.41-1 14h-1c-1.104-4.417-1.15-8.474-1-13l1-1z" fill="#3D86F7"/><path d="m501 352 4 1a367.08 367.08 0 0 1-2.813 3.438l-1.582 1.933C499 360 499 360 496 361l1-6 3-1 1-2z" fill="#458EBE"/><path d="m157 315 4 1-10 10-1-3c1.434-2.043 1.434-2.043 3.438-4.188l1.996-2.167L157 315z" fill="#C3EFFE"/><path d="M15 138h1c2.143 7.429 2.143 7.429 3 11h2v2h4v2c-4.316-.48-6.202-1.702-9-5-1.607-3.215-1.057-6.436-1-10z" fill="#4D8EB9"/><path d="M464 105h4v2c6.063-.663 6.063-.663 12-2-2 3-2 3-5 4-4.247.232-7.356.332-11-2v-2z" fill="#36A1C3"/><path d="m485 90 2 1-4 7 6-2-5 5-2-2v-3h-2c1.133-3.4 2.125-4.053 5-6z" fill="#2498D1"/><path d="M446 64h2v3l2 1-5 5c-1.46-2.647-2-3.894-2-7h3v-2z" fill="#1DA8C8"/><path d="m543.125 353.938 2.758.027L548 354l1 4a491.948 491.948 0 0 1-5.375-.375l-3.023-.21C538 357 538 357 536 355c2.525-1.262 4.312-1.099 7.125-1.063z" fill="#4E93C6"/><path d="m0 323 3.188 1.938c2.92 1.68 5.43 2.652 8.812 3.062v2H4v-3l-4 1v-5z" fill="#427FC6"/><path d="M550 292c2.497 2.6 2.99 3.895 3.313 7.563C553 303 553 303 551 306c-.365-1.58-.717-3.165-1.063-4.75l-.597-2.672c-.338-2.565-.152-4.149.66-6.578z" fill="#51A1C1"/><path d="M60 279h2v14l-3-1c-.027-1.98-.046-3.958-.063-5.938l-.035-3.34C59 280 59 280 60 279z" fill="#BBF4FE"/><path d="M65 223c2.863 2.863 2.994 4.659 3.063 8.688L68 235l-2 1v-6h-2c-.043-2-.04-4 0-6l1-1z" fill="#3E93CC"/><path d="M541 100h1l.184 2.887.254 3.8c.08 1.242.162 2.483.246 3.762.26 2.933.664 5.685 1.316 8.551l-3-1c-1.509-6.035-.642-11.897 0-18z" fill="#3B96FB"/><path d="m15 259 1 2a1716.08 1716.08 0 0 1-2.813 3.313l-1.582 1.863C8.663 269.52 8.663 269.52 7 271H5c1.477-3.452 3.438-5.65 6.125-8.25l2.195-2.14L15 259z" fill="#3186CC"/><path d="m58 165 2 4-4 4-4-2 6-6zm2 2 2 1z" fill="#C0E2F7"/><path d="M406 0h4c-1.125 2.972-2.223 5.334-4 8h-2v2h-2l.875-1.625C404.167 5.647 405.085 2.874 406 0z" fill="#4292BE"/><path d="m506 351 2 1c-.188 2.375-.188 2.375-1 5-2.563 1.313-2.563 1.313-5 2l-2-2 3-1c1.15-1.967 1.15-1.967 2-4l1-1z" fill="#B4E3F7"/><path d="M527 295c-1.37 2.95-2.878 5.525-5 8h-2v-4h2v-3c2-1 2-1 5-1z" fill="#B3EBF9"/><path d="m66 278 3 1-2 6-3-1v6h-1c-.154-8-.154-8 1-11l2-1z" fill="#4AD5FA"/><path d="m58 163 2 1-1.426 1.39c-3.905 3.836-3.905 3.836-7.386 8.048L50 175h-2l3-6h2v-2a105.022 105.022 0 0 1 5-4z" fill="#52B8C6"/><path d="m18 130 4 1-2.938 2c-2.752 2.247-3.53 3.787-3.937 7.313L15 144h-1a247.613 247.613 0 0 1-.625-4.313l-.352-2.425C13 135 13 135 15 132h3v-2z" fill="#ABD9F1"/><path d="M510 82c3.489.646 6.068 2.019 9 4l1 2c-1.75.688-1.75.688-4 1-2.25-1.25-2.25-1.25-4-3v-3l-2-1z" fill="#2E96D2"/><path d="m297.688 327.813 3.574.082L304 328v2l-2.047-.105-2.703-.082-2.672-.106c-3.044.346-4.257 1.37-6.578 3.293h-2c0-2 0-2 1.082-3.613 2.842-2.055 5.151-1.677 8.606-1.575z" fill="#BEEDFD"/><path d="m503 321 1 4c-2.938 2.503-5.179 3.47-9 4 2.416-3.192 4.68-5.747 8-8z" fill="#5099C1"/><path d="M1 321c2.007.287 4.009.619 6 1l-1 3h2v2c-3.242-.35-4.615-.562-6.813-3.063L0 322l1-1z" fill="#CBE5FA"/><path d="m161 315 5 1c-1.125 2-1.125 2-3 4-3.188.25-3.188.25-6 0l4-5z" fill="#5CC5EC"/><path d="m548 290 6 2c1.25 6.5 1.25 6.5-1 11l-2-11-3-1v-1z" fill="#B6EAFC"/><path d="M38 270c.688 1.813.688 1.813 1 4-1.25 1.75-1.25 1.75-3 3h-3l-1 2c0-3 0-3 2.438-5.625L37 271l1-1z" fill="#BEE3F9"/><path d="M36 232h4c-.349 3.255-1.021 4.019-3.563 6.25L34 240c.875-6.875.875-6.875 2-8z" fill="#C4E5F7"/><path d="m26 228 3 1-2.438 1.875c-3.713 3.62-3.457 8.2-3.562 13.125h-1a249.565 249.565 0 0 1-.25-5.75l-.14-3.234c.473-3.654 1.582-4.738 4.39-7.016z" fill="#6ABED2"/><path d="M552 106h1v6h2l-1 4h-2v2h-3l.938-2.063c1.196-3.307 1.652-6.452 2.062-9.937z" fill="#B0D8F9"/><path d="m425 54 3 1c-2.957 4.477-5.058 7.6-10 10 .343-3.2.944-3.954 3.5-6.063L424 57l1-3z" fill="#ACEEFC"/><path d="m470 325 1 2 2 1v8l-.813-1.813c-1.067-2.23-1.067-2.23-2.812-3.75C468 329 468 329 468 326l2-1z" fill="#3D87FC"/><path d="m36 300 4 3-7 7-1-3c1.375-2 1.375-2 3-4l1-3z" fill="#C3E3FB"/><path d="m50 254 4 1-8 8-1-3h2l1-4h2v-2z" fill="#5394C7"/><path d="m531 118 3.125 1c4.537 1.295 8.354 1.507 12.875 0l-2 4a424.4 424.4 0 0 1-4.75-.375c-.882-.07-1.763-.14-2.672-.21-2.569-.414-4.336-1.127-6.578-2.415v-2z" fill="#AFE8FE"/><path d="m373 45 2 1v2h2l-1 5h-3c-.981-3.053-.981-4.947 0-8z" fill="#3490D8"/><path d="m35 368-1 2 2 2c-6.523.37-6.523.37-8.938-1.5L26 369c2.957-1.478 5.742-1.06 9-1z" fill="#C6DCF2"/><path d="M62 357v1l-8 1v2l-3 2-3-1c4.796-4.796 7.248-5.582 14-5z" fill="#5D99C7"/><path d="M44.563 327.938 47 328c-3.625 5.75-3.625 5.75-7 8 1.015-7.976 1.015-7.976 4.563-8.063z" fill="#4A8BC5"/><path d="m29 310 3 1-7 7-2-1c1.38-3.335 2.85-5.186 6-7z" fill="#BEE2FA"/><path d="m36 148 1 2 3 1-6 5c-.688-2.313-.688-2.313-1-5 1.438-1.813 1.438-1.813 3-3z" fill="#C3E7F7"/><path d="m462 106 6 2c-1.75 2-1.75 2-4 4h-4l2-6z" fill="#B9ECFA"/><path d="m467 42 2 1v8l-5 2 .938-2.125c1.095-2.964 1.626-5.752 2.062-8.875z" fill="#318BD5"/><path d="M490 19c0 3.481-.412 3.865-2.75 6.25-.51.541-1.02 1.083-1.547 1.64C484 28 484 28 481.797 27.673L480 27l2.188-1.188c3.04-1.958 5.333-4.192 7.812-6.812z" fill="#2B84D8"/><path d="m486 338 2 1-1 4-5 1c.313-1.875.313-1.875 1-4l3-2z" fill="#4C92C4"/><path d="M80 278h2l2 10h-2v3h-2v-13z" fill="#355DF0"/><path d="M68 281h1v12l-3-1c.14-1.646.287-3.292.438-4.938.08-.916.162-1.833.246-2.777C67 282 67 282 68 281z" fill="#3EC6FA"/><path d="M57 136c6.4-.492 6.4-.492 9.438 2L68 140h-6l-1-3c-2.015-.733-2.015-.733-4-1z" fill="#61BBC9"/><path d="M472.563 100.938 475 101v4h-6c0-3.976 0-3.976 3.563-4.063z" fill="#0FA9D6"/><path d="m389 43 3 1 1 6-4 1v-8z" fill="#3454F5"/><path d="m450 31 2 1-9 9-1-3h2l2-4h2v-2l2-1z" fill="#ACF1FD"/><path d="m405 32 3 1v2c-2.525 1.262-4.312 1.099-7.125 1.063l-2.758-.028L396 36v-2h9v-2z" fill="#4A95C0"/><path d="M484 336h3c-1.38 4.142-3.598 5.322-7 8l-2-1c2-3 2-3 5-4l1-3z" fill="#BAECF7"/><path d="m21 317 3 2-7 7-1-3c1.404-2.264 3.197-4.02 5-6z" fill="#BCE2F9"/><path d="m398 96 4 1 1 4-3 2c-1.46-2.647-2-3.894-2-7z" fill="#07C3CB"/><path d="m387 61 1 3h-12c3.744-2.496 6.542-3 11-3z" fill="#C3EDEA"/><path d="M428 9h4c-1.491 3.795-3.757 5.61-7 8 .628-2.929 1.586-5.361 3-8z" fill="#4D92C4"/><path d="M70 357h3v3l5 1c-2.252 1.367-3.526 2.04-6.188 1.813L70 362l-1-3 1-2z" fill="#DFEBF7"/><path d="m41 359 7 2-1.813.875c-2.38 1.172-2.38 1.172-5.187 3.125a88.406 88.406 0 0 1-1-5l1-1z" fill="#E2ECF7"/><path d="M63 358c2.438 2 2.438 2 4 4-4-1-4-1-5.938-1.625-2.574-.468-4.544-.005-7.062.625v-2c3.092-1.546 5.594-1.294 9-1z" fill="#458BBC"/><path d="m556 354 4 1v5h-3c-1-1-1-1-1.063-3.563L556 354z" fill="#C6EEF0"/><path d="M517 340c0 3.576-1.088 5.053-3 8l-4-1 7-7z" fill="#AEE0F6"/><path d="M105 328h4c-.313 1.875-.313 1.875-1 4l-3 2a88.406 88.406 0 0 1-1-5l1-1z" fill="#E3E4F7"/><path d="m130 330 1 2c-4.875-.875-4.875-.875-6-2a235.648 235.648 0 0 0-7-1v-1c5.13-1.106 7.805-1.332 12 2z" fill="#55ABE6"/><path d="M499 320h5c-2.313 2.5-2.313 2.5-5 5h-3l1-3h2v-2z" fill="#B2E3F8"/><path d="M237 320c-1.875 3.875-1.875 3.875-3 5-1.666.04-3.334.043-5 0l1-2h2v-2c2-1 2-1 5-1z" fill="#7FC8DD"/><path d="M480 320v10h-3l1-3a99.485 99.485 0 0 0 0-5l-2-1c2-1 2-1 4-1z" fill="#C1E5EF"/><path d="m68 275 4 2h-2v2l2 1-1 2-3-1v-2l-2-2 2-2z" fill="#46BBF1"/><path d="m411 102-1 3h-7c2.548-3.822 3.609-4.464 8-3z" fill="#05C2C8"/><path d="M537 97c5.957-.293 5.957-.293 8 0l3 3-12-1 1-2z" fill="#559CDB"/><path d="m433 81 3 1a858.147 858.147 0 0 1-2.938 3.5l-1.652 1.969L430 89h-1v-5h3l1-3z" fill="#32B4C4"/><path d="m384 56 4 2c-2 2-2 2-3.945 2.195L378 60v-2l6-1v-1z" fill="#487DCE"/><path d="m376 38-1 3h-2v3h-2v8h-1c-.626-7.978-.626-7.978 1.875-12.063C374 38 374 38 376 38z" fill="#599DC6"/><path d="m449 5 6 1 1 3 2 1-1 3a1154.753 1154.753 0 0 1-4-3.438l-2.25-1.933L449 6V5z" fill="#458FC4"/><path d="m67 363 10 2v2c-3.313.25-3.313.25-7 0l-3-4z" fill="#3F8DC3"/><path d="m516 304 3 1-1 2h-2l-2 4h-2c.313-1.938.313-1.938 1-4l3-1v-2z" fill="#ADE6F8"/><path d="m6 302 1 4c-1.813 1.563-1.813 1.563-4 3l-3-1 6-6z" fill="#CAE7FD"/><path d="M70 300h7v2h3v2l-7-1v-2l-3-1z" fill="#D8E9EF"/><path d="m55 215 1 2 2 1-10 2 1-3c3.063-1.188 3.063-1.188 6-2z" fill="#D8E7EF"/><path d="M486 99c.625 1.875.625 1.875 1 4-2.463 2.463-4.707 2.998-8 4l2.938-3.438 1.652-1.933A49.663 49.663 0 0 1 486 99z" fill="#9FE1F6"/><path d="M459 92h1v10h2l2 4-5-2V92z" fill="#99E1F5"/><path d="M462 96h2l1 3 2 1-1 3h-3l-1-7z" fill="#1EA1DF"/><path d="M404 4c0 3 0 3-2 6l2 1-3 3-2-1c1.09-3.775 1.908-6.47 5-9z" fill="#50A0CB"/><path d="m484 369 2 1-1 2h2v3h-5l2-6z" fill="#3786D3"/><path d="m518 336 3 1-8 8-1-3 6-6z" fill="#458BB6"/><path d="m63 312 1 2c-1.813 3-1.813 3-4 6h-3c.813-1.938.813-1.938 2-4l3-1 1-3z" fill="#AEDFF4"/><path d="m19 286 3 1-7 7-1-3h2v-3h3v-2z" fill="#538EBF"/><path d="M18 281c1.675.286 3.344.618 5 1l-1 4h-3l-1 2 1-5-2-1 1-1z" fill="#3D84CD"/><path d="M52 224h2v5c-2.49.687-4.379 1-7 1a158.814 158.814 0 0 1 5-6z" fill="#3B8CCB"/><path d="M35 216h1c.392 2.664.406 4.392-1.113 6.668-1.25 1.483-2.566 2.912-3.887 4.332l-1-3h2l1-4h2v-4z" fill="#65B6CC"/><path d="m411 106 2 1-2 3 2 2h-6l-1-2h2l1-3 2-1z" fill="#BFF0FE"/><path d="m493 92 2 3c-2.834 2.328-4.295 3.074-8 4l6-7z" fill="#9CE4F7"/><path d="m515 88 2.125.938c2.964 1.095 5.752 1.626 8.875 2.062-2.572 1.62-3.677 2.044-6.75 1.625L517 92v-2h-2v-2z" fill="#A8E7FD"/><path d="M384 41h5l1 2-1 2-5-1v-3z" fill="#3B61F3"/><path d="M380 33c-2.967 1.648-5.656 2.443-9 3v-3c3.069-1.534 5.7-.55 9 0z" fill="#C5EAF3"/><path d="m420 364 1 3 2 1-3 1-1 3c-.93-2.606-1.15-3.642-.063-6.25L420 364z" fill="#B8E2F6"/><path d="m451 347 5 1v2l3 1c-1.75.688-1.75.688-4 1-2.25-1.313-2.25-1.313-4-3v-2z" fill="#4A92BB"/><path d="M472 344v2c-2.709 1.354-5.01 1.065-8 1v-2c2.928-.976 4.956-1.082 8-1z" fill="#4F9AE0"/><path d="M4 327v5l-2 1-2-1v-4c2-1 2-1 4-1z" fill="#3B7FE0"/><path d="m462 320 9 1v2h-9v-3z" fill="#BCEFFD"/><path d="M18 315h3l-1 5h-4v-3h2v-2z" fill="#E0E7F7"/><path d="m507 312 4 2h-2v2l-4 2c0-4 0-4 2-6z" fill="#B6E6FA"/><path d="M64 302h1c.492 7.262.492 7.262-2 11l-2 2 1-6h2v-7z" fill="#5A92B4"/><path d="m2 296 3 1H3l-1 7H0v-7l2-1z" fill="#3881E2"/><path d="M66 219.375 67 221c-3.982 1.054-6.982.841-11 0v-1c7.508-2.338 7.508-2.338 10-.625z" fill="#BCE3FA"/><path d="m70 152 2 3c-1.813 2.5-1.813 2.5-4 5h-3l1-3h2l2-5z" fill="#ADEBF6"/><path d="m37 155 1 2h3v3h-5l-1-4 2-1z" fill="#46BCC3"/><path d="M22 132h9c-2 3-2 3-3.938 3.813C25 136 25 136 22 134v-2z" fill="#3C7CED"/><path d="m557 83 6 1v3h-6v-4z" fill="#1D82F2"/><path d="m468 70 3 1-4 5-3-1v-2h3l1-3z" fill="#AFDFFA"/><path d="m445 38 4 2-3 4-4-3 3-3z" fill="#23B1CA"/><path d="m175 369 2 3c-1.313 1.5-1.313 1.5-3 3h-3c1.152-2.468 2.048-4.048 4-6z" fill="#B2ECFC"/><path d="m188 368 2 1c-.688 2.438-.688 2.438-2 5-2.625.813-2.625.813-5 1l2-1c1.092-1.933 1.092-1.933 2-4l1-2z" fill="#5DBDD7"/><path d="m423 361 5 1-5 5v-6z" fill="#B0DFF4"/><path d="M17 357h1l3 11-3-1c-2.28-6.158-2.28-6.158-1-10z" fill="#3986E7"/><path d="M105 337h2v3c-2 2-2 2-5 3l-2-1 1.938-.813c2.393-1.074 2.393-1.074 3.062-4.187z" fill="#5CA5D8"/><path d="M96 336h7v3l-6 1-1-4z" fill="#DDE9FA"/><path d="M35 336h5l-2 3h-2l-1 3-2-3h2v-3z" fill="#518EC2"/><path d="m142 327 2 1v3h-8l1-2 3 1v-2l2-1z" fill="#DAE9F3"/><path d="M254 320h2v7l-2 1a176.79 176.79 0 0 1-1-7l1-1z" fill="#DCE7FA"/><path d="m72 276 2 1c.625 2.063.625 2.063 1 4h-4l-1-4 2-1z" fill="#36A5FC"/><path d="M21 242c3.875 4.75 3.875 4.75 5 7l-3 1c-2.152-3.228-2.2-4.284-2-8z" fill="#58B5CC"/><path d="m68 239 5 1-1 3c-1.938.813-1.938.813-4 1l-2-2 2-3z" fill="#C6E6F6"/><path d="M11 151h5l-1 4-4-1v-3z" fill="#DFE7F6"/><path d="M50 137h2v3c-2.5 1.688-2.5 1.688-5 3l-1-4h4v-2z" fill="#BDEEF8"/><path d="M553 89h9l-3 3c-3.688-.313-3.688-.313-7-1l1-2z" fill="#B1E6FA"/><path d="M469 59h3c1.354 2.709 1.065 5.01 1 8-2.9-2.395-3.502-4.312-4-8z" fill="#A7D9F6"/><path d="M388 20h1v9l-1-2h-2c.875-5.875.875-5.875 2-7z" fill="#BFF0FE"/><path d="m172 368 4 1-5 6c-.625-1.813-.625-1.813-1-4l2-3z" fill="#56CCE8"/><path d="M462 354h8l-3 4c-3-1-3-1-5-4z" fill="#398BBE"/><path d="M176 339h2l1 6-3 1v-7z" fill="#E9E1F6"/><path d="M14 298c.553 2.076 1 3.844 1 6l-5-1 4-5z" fill="#E0EBF9"/><path d="M82 279c1.5 1.063 1.5 1.063 3 3 .188 3.688.188 3.688 0 7-2.296-3.445-2.54-5.938-3-10z" fill="#5671D8"/><path d="M42 181h2c-.75 2.438-.75 2.438-2 5-2.125.813-2.125.813-4 1a125.024 125.024 0 0 1 4-6z" fill="#B7ECFB"/><path d="M38 176h6l-1 3c-2.063.688-2.063.688-4 1l-1-4z" fill="#3BC0D5"/><path d="m24 156 3 1v3h-5v-3l2-1z" fill="#E5E5F9"/><path d="M47 143h1v5l-6 1a317.62 317.62 0 0 1 5-6z" fill="#67BACB"/><path d="m16 138 4 1v3h-3l-1 2v-6z" fill="#4192D7"/><path d="M55 131h6v2l-7 1 1-3z" fill="#DDE6FE"/><path d="M33 128h6l-2 5-.875-1.938c-.953-2.214-.953-2.214-3.125-3.062z" fill="#DBE8FB"/><path d="M399 87c-.75 4.75-.75 4.75-3 7l-1-6c2-1 2-1 4-1z" fill="#26BDC0"/></svg>